<svg xmlns="http://www.w3.org/2000/svg" width="262" height="72" preserveAspectRatio="none">
  <path fill-rule="evenodd" d="M5.434 9.434L8 12H1V5l2.958 2.958A8.287 8.287 0 019.32 6c3.459 0 6.424 2.11 7.68 5l-2 1c-.937-2.39-3.13-3.92-5.68-4a6.572 6.572 0 00-3.886 1.434zM30.566 9.434L28 12h7V5l-2.958 2.958A8.287 8.287 0 0026.68 6C23.22 6 20.256 8.11 19 11l2 1c.937-2.39 3.13-3.92 5.68-4 1.469.053 2.82.579 3.886 1.434zM50 16H40v-3h-3V8.006C37 6.898 37.895 6 38.994 6h12.012C52.107 6 53 6.887 53 8.006V13h-3v3zm-8-5h6v3h-6v-3zm-2-9h10v3H40V2zm9 6h2v2h-2V8zM66 2h-8c-.55 0-1 .45-1 1v3c0 .55.45 1 1 1h8c.55 0 1-.45 1-1V5h1v3h-7v8h2v-6h7V4h-3V3c0-.55-.45-1-1-1zM74.27 4.55l5.16 5.15L77 15h2.5l1.64-3.58L85.73 16 87 14.73 75.55 3.27l-1.28 1.28zM77.82 3l2 2h1.76l-.55 1.21 1.71 1.71L84.08 5H88V3H77.82zM103 6.5c0-1.93-1.57-3.5-3.5-3.5H94v12h6.25c1.79 0 3.25-1.46 3.25-3.25 0-1.3-.77-2.41-1.87-2.93.83-.58 1.37-1.44 1.37-2.32zM99 5c.83 0 1.5.67 1.5 1.5S99.83 8 99 8h-2V5h2zm-2 8v-3h2.5c.83 0 1.5.67 1.5 1.5s-.67 1.5-1.5 1.5H97zM115 3v2h2.58l-3.66 8H111v2h8v-2h-2.58l3.66-8H123V3z" xmlns="http://www.w3.org/2000/svg"/>
  <path d="M135 15c2.76 0 5-2.24 5-5V3h-2v7c0 1.75-1.5 3-3 3s-3-1.242-3-3V3h-2v7c0 2.76 2.24 5 5 5zm-6 1v2h12v-2h-12z" xmlns="http://www.w3.org/2000/svg"/>
  <path fill="#010101" fill-rule="evenodd" d="M148.887 6.06c0-.457.098-.874.297-1.252.198-.38.476-.702.836-.968s.784-.472 1.279-.619A5.712 5.712 0 01152.926 3c.608 0 1.159.083 1.654.251.495.169.919.402 1.271.705.353.3.623.657.814 1.073.191.412.285.866.285 1.357h-2.257a1.85 1.85 0 00-.11-.637 1.26 1.26 0 00-.333-.506 1.535 1.535 0 00-.563-.327 2.425 2.425 0 00-.798-.116c-.297 0-.552.034-.773.098a1.52 1.52 0 00-.54.27 1.144 1.144 0 00-.431.9c0 .36.184.663.551.907l.065.042c.262.172.739.483 1.239.983h-3s-.786-.624-.824-.691c-.191-.357-.288-.773-.288-1.249zM160 9h-14v2h7.219c.135.053.3.105.412.154.278.123.495.255.653.382.157.132.262.274.319.424.056.154.082.326.082.514 0 .176-.034.341-.101.491a1.018 1.018 0 01-.311.394 1.603 1.603 0 01-.533.258 2.71 2.71 0 01-.761.094c-.326 0-.623-.034-.889-.097a1.797 1.797 0 01-.679-.312 1.446 1.446 0 01-.438-.558c-.105-.229-.192-.574-.192-.744h-2.231c0 .252.06.688.176 1.025a3.15 3.15 0 001.223 1.598c.281.195.585.36.915.487.33.131.671.229 1.035.289.36.064.724.094 1.084.094.6 0 1.147-.068 1.635-.207a3.879 3.879 0 001.252-.592 2.69 2.69 0 00.803-.953c.19-.378.28-.806.28-1.286 0-.45-.078-.855-.232-1.211a2.258 2.258 0 00-.127-.252L160 11V9z" xmlns="http://www.w3.org/2000/svg"/>
  <path fill-rule="evenodd" d="M172 1h-2l-4.5 12h2l1.12-3h4.75l1.12 3h2L172 1zm-2.62 7L171 3.67 172.62 8h-3.24z" xmlns="http://www.w3.org/2000/svg"/>
  <path fill="#000" d="M194.5 8.87s-1.5 1.62-1.5 2.62c0 .83.67 1.5 1.5 1.5s1.5-.67 1.5-1.5c0-.99-1.5-2.62-1.5-2.62zm-1.79-2.08L185.91 0l-1.06 1.06 1.59 1.59-4.15 4.14a.996.996 0 000 1.41l4.5 4.5c.2.2.45.3.71.3.26 0 .51-.1.71-.29l4.5-4.5c.39-.39.39-1.03 0-1.42zm-8.5.21l3.29-3.29L190.79 7h-6.58z" fill-rule="evenodd" xmlns="http://www.w3.org/2000/svg"/>
  <path fill-rule="evenodd" d="M201 6h-2V2h7v2h-5v2zm7-2V2h7v4h-2V4h-5zm0 10h5v-2h2v4h-7v-2zm-9-2h2v2h5v2h-7v-4zm0-4h4V6l3 3-3 3v-2h-4V8zm9 1l3-3v2h4v2h-4v2l-3-3zM218 16h10v-2h-10v2zm10-10h-10v2h10V6zm-10-4v2h14V2h-14zm0 10h14v-2h-14v2zM238 14v2h10v-2h-10zm0-8v2h10V6h-10zm-2 6h14v-2h-14v2zm0-10v2h14V2h-14zM6 34h10v-2H6v2zm-4-4h14v-2H2v2zm0-10v2h14v-2H2zm4 6h10v-2H6v2zM21 20v2h12v-2H21zm2.5 7H26v7h2v-7h2.5L27 23.5 23.5 27zM48.5 21H46v-3h-2v3h-2.5l3.5 3.5 3.5-3.5zM39 26v2h12v-2H39zm2.5 7H44v3h2v-3h2.5L45 29.5 41.5 33zM66.5 27H64v-7h-2v7h-2.5l3.5 3.5 3.5-3.5zM57 32v2h12v-2H57zM88 21H74v2h14v-2zM74 33h4v-2h-4v2zm11.5-7H74v2h11.75c.83 0 1.5.67 1.5 1.5s-.67 1.5-1.5 1.5H83v-2l-3 3 3 3v-2h2.5c1.93 0 3.5-1.57 3.5-3.5S87.43 26 85.5 26zM92 21v1l6 6v5l2-1v-4l6-6v-1H92zm4 3h6l-3 3-3-3zM122 20h-10v1.8l5.5 5.2-5.5 5.2V34h10v-2h-6.9l4.9-5-4.9-5h6.9zM131 25l4 4 4-4zM151 31l4-4-4-4zM163.9 27c0-1.16.94-2.1 2.1-2.1h4V23h-4c-2.21 0-4 1.79-4 4s1.79 4 4 4h4v-1.9h-4a2.1 2.1 0 01-2.1-2.1zm12.1-4h-4v1.9h4a2.1 2.1 0 110 4.2h-4V31h4c2.21 0 4-1.79 4-4s-1.79-4-4-4zm-8 5h6v-2h-6v2zM196 19c.55 0 1 .45 1 1v14c0 .55-.45 1-1 1h-14c-.55 0-1-.45-1-1V20c0-.55.45-1 1-1h14zm-13 2v12h12V21h-12zm4 10h-2v-5h2v5zm3 0h-2v-8h2v8zm3 0h-2v-4h2v4z" xmlns="http://www.w3.org/2000/svg"/>
  <g fill="none" fill-rule="evenodd" xmlns="http://www.w3.org/2000/svg">
    <path stroke="#000" d="M199.5 21.5h15v12h-15z"/>
    <path fill="#000" d="M204 26h1v7h-1z"/>
    <path fill="#D8D8D8" d="M200 22h14v3h-14z"/>
    <path fill="#000" d="M200 25h14v1h-14zm0 4h14v1h-14z"/>
  </g>
  <path fill-rule="evenodd" d="M220 25.5c-.83 0-1.5.67-1.5 1.5s.67 1.5 1.5 1.5 1.5-.67 1.5-1.5-.67-1.5-1.5-1.5zm10 0c-.83 0-1.5.67-1.5 1.5s.67 1.5 1.5 1.5 1.5-.67 1.5-1.5-.67-1.5-1.5-1.5zm-5 0c-.83 0-1.5.67-1.5 1.5s.67 1.5 1.5 1.5 1.5-.67 1.5-1.5-.67-1.5-1.5-1.5zM244 26v-4h-2v4h-4v2h4v4h2v-4h4v-2h-4zM2 38v14h14V38H2zm6 12H4v-4h4v4zm0-6H4v-4h4v4zm6 6h-4v-4h4v4zm0-6h-4v-4h4v4z" xmlns="http://www.w3.org/2000/svg"/>
  <g fill-rule="evenodd" xmlns="http://www.w3.org/2000/svg">
    <path d="M20 52h2v-2h-2v2zm2-11h-2v2h2v-2zm1 11h2v-2h-2v2zm8-14h-2v2h2v-2zm-9 0h-2v2h2v-2zm3 0h-2v2h2v-2zm-5 11h2v-2h-2v2zm9 3h2v-2h-2v2zm3-14v2h2v-2h-2zm0 5h2v-2h-2v2zm0 9h2v-2h-2v2zm0-3h2v-2h-2v2z" opacity=".54"/>
    <path d="M28 38h-2v6h-6v2h6v6h2v-6h6v-2h-6z"/>
  </g>
  <g fill-rule="evenodd" xmlns="http://www.w3.org/2000/svg">
    <path d="M44 52h2v-2h-2v2zm-3-12h2v-2h-2v2zm3 9h2v-2h-2v2zm-3 3h2v-2h-2v2zm-3-9h2v-2h-2v2zm0 9h2v-2h-2v2zm0-12h2v-2h-2v2zm0 9h2v-2h-2v2zm12 0h2v-2h-2v2zm0 3h2v-2h-2v2zm0-9h2v-2h-2v2zm0-5v2h2v-2h-2zm-6 2h2v-2h-2v2zm3 0h2v-2h-2v2zm-3 3h2v-2h-2v2zm3 9h2v-2h-2v2z" opacity=".54"/>
    <path d="M38 46h14v-2H38z"/>
  </g>
  <g fill-rule="evenodd" xmlns="http://www.w3.org/2000/svg">
    <path d="M59 52h2v-2h-2v2zm-3-9h2v-2h-2v2zm0-3h2v-2h-2v2zm3 6h2v-2h-2v2zm0-6h2v-2h-2v2zm-3 12h2v-2h-2v2zm0-6h2v-2h-2v2zm0 3h2v-2h-2v2zm12-11v2h2v-2h-2zm0 8h2v-2h-2v2zm0 6h2v-2h-2v2zm0-9h2v-2h-2v2zm0 6h2v-2h-2v2zm-3 3h2v-2h-2v2zm0-6h2v-2h-2v2zm0-6h2v-2h-2v2z" opacity=".54"/>
    <path d="M62 52h2V38h-2z"/>
  </g>
  <g fill-rule="evenodd" xmlns="http://www.w3.org/2000/svg">
    <path d="M82 41h-2v2h2v-2zm3 3h-2v2h2v-2zm-3 0h-2v2h2v-2zm0 3h-2v2h2v-2zm-3-3h-2v2h2v-2z" opacity=".54"/>
    <path d="M74 38h14v14H74V38zm12 12V40H76v10h10z"/>
  </g>
  <g fill-rule="evenodd" xmlns="http://www.w3.org/2000/svg">
    <path d="M98 46h2v-2h-2v2zm0-3h2v-2h-2v2zm0 6h2v-2h-2v2zm0 3h2v-2h-2v2zm-3 0h2v-2h-2v2zm0-12h2v-2h-2v2zm0 6h2v-2h-2v2zm9 6h2v-2h-2v2zm0-6h2v-2h-2v2zm0 3h2v-2h-2v2zm0-6h2v-2h-2v2zm-6-3h2v-2h-2v2zm6-2v2h2v-2h-2zm-3 14h2v-2h-2v2zm0-6h2v-2h-2v2zm0-6h2v-2h-2v2z" opacity=".54"/>
    <path d="M92 52h2V38h-2z"/>
  </g>
  <g fill-rule="evenodd" xmlns="http://www.w3.org/2000/svg">
    <path d="M113 46h2v-2h-2v2zm-3 6h2v-2h-2v2zm6 0h2v-2h-2v2zm0-3h2v-2h-2v2zm-3 3h2v-2h-2v2zm-3-3h2v-2h-2v2zm6-3h2v-2h-2v2zm-6-3h2v-2h-2v2zm0 3h2v-2h-2v2zm12 0h2v-2h-2v2zm0 3h2v-2h-2v2zm0-6h2v-2h-2v2zm-6 0h2v-2h-2v2zm3 9h2v-2h-2v2zm0-6h2v-2h-2v2zm3 6h2v-2h-2v2z" opacity=".54"/>
    <path d="M110 38v2h14v-2z"/>
  </g>
  <g fill-rule="evenodd" xmlns="http://www.w3.org/2000/svg">
    <path d="M128 40h2v-2h-2v2zm3 0h2v-2h-2v2zm0 6h2v-2h-2v2zm0 6h2v-2h-2v2zm-3-9h2v-2h-2v2zm0 3h2v-2h-2v2zm0 6h2v-2h-2v2zm0-3h2v-2h-2v2zm9-3h2v-2h-2v2zm-3 6h2v-2h-2v2zm3 0h2v-2h-2v2zm-3-12h2v-2h-2v2zm3 0h2v-2h-2v2zm-3 9h2v-2h-2v2zm0-6h2v-2h-2v2zm0 3h2v-2h-2v2z" opacity=".54"/>
    <path d="M140 38v14h2V38z"/>
  </g>
  <g fill-rule="evenodd" xmlns="http://www.w3.org/2000/svg">
    <path d="M151 38h-2v2h2v-2zm3 6h-2v2h2v-2zm0 3h-2v2h2v-2zm3-3h-2v2h2v-2zm-6 0h-2v2h2v-2zm6-6h-2v2h2v-2zm-3 3h-2v2h2v-2zm0-3h-2v2h2v-2zm-6 9h-2v2h2v-2zm10 2h2v-2h-2v2zm0-6h2v-2h-2v2zm0 3h2v-2h-2v2zm0-8v2h2v-2h-2zm-10 0h-2v2h2v-2zm0 3h-2v2h2v-2zm0 3h-2v2h2v-2z" opacity=".54"/>
    <path d="M146 52h14v-2h-14z"/>
  </g>
  <path fill-rule="evenodd" d="M170 52h2v-2h-2v2zm-3-6h2v-2h-2v2zm0-6h2v-2h-2v2zm3 9h2v-2h-2v2zm-3 3h2v-2h-2v2zm-3-9h2v-2h-2v2zm0 9h2v-2h-2v2zm0-12h2v-2h-2v2zm0 6h2v-2h-2v2zm6 0h2v-2h-2v2zm-6 3h2v-2h-2v2zm12 0h2v-2h-2v2zm0 3h2v-2h-2v2zm0-6h2v-2h-2v2zm0-3h2v-2h-2v2zm0-5v2h2v-2h-2zm-6 2h2v-2h-2v2zm3 0h2v-2h-2v2zm-3 3h2v-2h-2v2zm3 9h2v-2h-2v2zm0-6h2v-2h-2v2z" opacity=".54" xmlns="http://www.w3.org/2000/svg"/>
  <path fill-rule="evenodd" d="M190.5 39.62l-6.5 6.5V49h2.88l6.5-6.5-2.88-2.88zm5.35.4c.2-.2.2-.51 0-.71l-2.17-2.17c-.2-.2-.51-.2-.71 0l-1.35 1.36 2.88 2.88 1.35-1.36zM200 40h14v2h-14v-2zm0 4h6v2h-6v-2zm0 4h2v2h-2v-2zm8-4h6v2h-6v-2zm-4 4h2v2h-2v-2zm4 0h2v2h-2v-2zm4 0h2v2h-2v-2zM227 41l-4 4 4 4zM246.53 42.53l-1.06-1.06-2.47 2.47-2.47-2.47-1.06 1.06 2.47 2.47-2.47 2.47 1.06 1.06 2.47-2.47 2.47 2.47 1.06-1.06-2.47-2.47zM12.44 60.44L9 63.88l-3.44-3.44L4.5 61.5 9 66l4.5-4.5zM27 60l-4.5 4.5 1.06 1.06L27 62.12l3.44 3.44 1.06-1.06zM47.56 66.44L44.12 63l3.44-3.44-1.06-1.06L42 63l4.5 4.5zM66 63l-4.5-4.5-1.06 1.06L63.88 63l-3.44 3.44 1.06 1.06zM75 62h8.875l-3.935-3.94L81 57l6 6-6 6-1.06-1.06L83.875 64H75zM105 62h-8.875l3.935-3.94L99 57l-6 6 6 6 1.06-1.06L96.125 64H105z" xmlns="http://www.w3.org/2000/svg"/>
  <path d="M122.512 61.531A5.613 5.613 0 00117 57a5.622 5.622 0 00-4.988 3.031A4.493 4.493 0 00108 64.5c0 2.484 2.016 4.5 4.5 4.5h9.75c2.07 0 3.75-1.68 3.75-3.75a3.73 3.73 0 00-3.488-3.719zm-.262 5.969h-9.75a3 3 0 01-3-3c0-1.54 1.148-2.82 2.672-2.977l.8-.082.376-.714A4.1 4.1 0 01117 58.5a4.128 4.128 0 014.043 3.324l.223 1.125 1.148.082a2.232 2.232 0 012.086 2.219 2.256 2.256 0 01-2.25 2.25zm-4.164-6h-2.172v2.25H114l3 3 3-3h-1.914zm0 0M130.082 59.035l-.602.672.06.258h1.546c-.316 1.812-.55 3.445-1.004 5.965-.543 3.215-.855 4.004-1.039 4.293-.164.285-.395.433-.711.433-.348 0-.977-.273-1.312-.582-.122-.082-.266-.058-.418.04-.301.253-.598.648-.598 1-.02.472.621.886 1.23.886.54 0 1.332-.336 2.164-1.117 1.137-1.074 1.989-2.543 2.704-5.719.457-2.027.671-3.344.992-5.2l1.926-.171.414-.758h-2.164c.558-3.492.996-4.012 1.535-4.012.355 0 .773.274 1.254.813.14.191.351.172.515.039.274-.16.61-.574.633-.95.016-.413-.48-.925-1.336-.925-.773 0-1.957.512-2.957 1.52-.871.917-1.332 2.066-1.648 3.515zm6.152 2.336c.598-.785.953-1.05 1.137-1.05.191 0 .344.187.672 1.234l.559 1.785c-1.082 1.637-1.872 2.55-2.352 2.55-.16 0-.32-.05-.434-.16-.113-.113-.238-.207-.359-.207-.394 0-.883.477-.894 1.067-.008.605.417 1.035.976 1.035.957 0 1.77-.934 3.332-3.406l.461 1.531c.39 1.313.852 1.875 1.43 1.875.71 0 1.668-.602 2.71-2.23l-.437-.497c-.625.75-1.043 1.102-1.289 1.102-.273 0-.516-.414-.832-1.438l-.672-2.156a15.13 15.13 0 011.13-1.453c.41-.46.722-.66.937-.66.18 0 .336.078.433.184.13.14.207.207.36.207.343 0 .875-.434.894-1.008.016-.531-.316-.989-.894-.989-.875 0-1.649.75-3.133 2.938l-.305-.938c-.426-1.32-.71-2-1.309-2-.695 0-1.648.848-2.582 2.192zm0 0" xmlns="http://www.w3.org/2000/svg"/>
</svg>
